{
  "accessors": [
    {
      "bufferView": 2,
      "componentType": 5126,
      "count": 65532,
      "max": [
        1.5000003576278687,
        0.1986033320426941,
        4.715651512145996
      ],
      "min": [
        -1.5000003576278687,
        -0.11996893584728241,
        -0.0011472702026367188
      ],
      "type": "VEC3"
    },
    {
      "bufferView": 2,
      "byteOffset": 786384,
      "componentType": 5126,
      "count": 65532,
      "max": [
        1.0,
        1.0,
        1.0
      ],
      "min": [
        -1.0,
        -1.0,
        -1.0
      ],
      "type": "VEC3"
    },
    {
      "bufferView": 1,
      "componentType": 5126,
      "count": 65532,
      "max": [
        0.875,
        1.0
      ],
      "min": [
        0.125,
        0.0
      ],
      "type": "VEC2"
    },
    {
      "bufferView": 0,
      "componentType": 5125,
      "count": 180858,
      "type": "SCALAR"
    },
    {
      "bufferView": 2,
      "byteOffset": 1572768,
      "componentType": 5126,
      "count": 2464,
      "max": [
        1.4768686294555664,
        0.19860297441482544,
        4.6883015632629395
      ],
      "min": [
        -1.4800254106521606,
        0.17869284749031067,
        0.014240264892578125
      ],
      "type": "VEC3"
    },
    {
      "bufferView": 2,
      "byteOffset": 1602336,
      "componentType": 5126,
      "count": 2464,
      "max": [
        8.258232497837525e-08,
        1.0,
        2.9038815796411654e-07
      ],
      "min": [
        -9.460737082633841e-09,
        -1.0,
        -2.169254464945425e-08
      ],
      "type": "VEC3"
    },
    {
      "bufferView": 1,
      "byteOffset": 524256,
      "componentType": 5126,
      "count": 2464,
      "max": [
        0.8737150430679321,
        0.7491281628608704
      ],
      "min": [
        0.12628495693206787,
        0.5005382895469666
      ],
      "type": "VEC2"
    },
    {
      "bufferView": 0,
      "byteOffset": 723432,
      "componentType": 5125,
      "count": 7302,
      "type": "SCALAR"
    },
    {
      "bufferView": 2,
      "byteOffset": 1631904,
      "componentType": 5126,
      "count": 2926,
      "max": [
        1.5507782697677612,
        0.2090846300125122,
        4.7570576667785645
      ],
      "min": [
        -1.5507781505584717,
        -0.1275312304496765,
        -0.013455147854983807
      ],
      "type": "VEC3"
    },
    {
      "bufferView": 2,
      "byteOffset": 1667016,
      "componentType": 5126,
      "count": 2926,
      "max": [
        1.0,
        1.0,
        1.0
      ],
      "min": [
        -1.0,
        -1.0,
        -1.0
      ],
      "type": "VEC3"
    },
    {
      "bufferView": 1,
      "byteOffset": 543968,
      "componentType": 5126,
      "count": 2926,
      "max": [
        1.0,
        1.0
      ],
      "min": [
        0.0,
        0.0
      ],
      "type": "VEC2"
    },
    {
      "bufferView": 0,
      "byteOffset": 752640,
      "componentType": 5125,
      "count": 6666,
      "type": "SCALAR"
    },
    {
      "bufferView": 2,
      "byteOffset": 1702128,
      "componentType": 5126,
      "count": 1057,
      "max": [
        1.6761292219161987,
        0.37280142307281494,
        0.3429369628429413
      ],
      "min": [
        -1.6187752485275269,
        -0.2938210666179657,
        -0.3322799801826477
      ],
      "type": "VEC3"
    },
    {
      "bufferView": 2,
      "byteOffset": 1714812,
      "componentType": 5126,
      "count": 1057,
      "max": [
        0.9995365142822266,
        1.0,
        1.0
      ],
      "min": [
        -0.9998130798339844,
        -1.0,
        -1.0
      ],
      "type": "VEC3"
    },
    {
      "bufferView": 1,
      "byteOffset": 567376,
      "componentType": 5126,
      "count": 1057,
      "max": [
        12.000001907348633,
        -1.6999727487564087
      ],
      "min": [
        0.0,
        -1.7619926929473877
      ],
      "type": "VEC2"
    },
    {
      "bufferView": 0,
      "byteOffset": 779304,
      "componentType": 5125,
      "count": 4632,
      "type": "SCALAR"
    }
  ],
  "asset": {
    "extras": {
      "author": "Alain Sorazu (https://sketchfab.com/alainsorazu)",
      "license": "CC-BY-SA-4.0 (http://creativecommons.org/licenses/by-sa/4.0/)",
      "source": "https://sketchfab.com/3d-models/notebook-b0ee64ec4a504764ab07eb93a1076feb",
      "title": "Notebook"
    },
    "generator": "Sketchfab-13.25.0",
    "version": "2.0"
  },
  "bufferViews": [
    {
      "buffer": 0,
      "byteLength": 797832,
      "name": "floatBufferViews",
      "target": 34963
    },
    {
      "buffer": 0,
      "byteLength": 575832,
      "byteOffset": 797832,
      "byteStride": 8,
      "name": "floatBufferViews",
      "target": 34962
    },
    {
      "buffer": 0,
      "byteLength": 1727496,
      "byteOffset": 1373664,
      "byteStride": 12,
      "name": "floatBufferViews",
      "target": 34962
    }
  ],
  "buffers": [
    {
      "byteLength": 3101160,
      "uri": "scene.bin"
    }
  ],
  "materials": [
    {
      "doubleSided": true,
      "name": "Sheets",
      "pbrMetallicRoughness": {
        "baseColorFactor": [
          0.8,
          0.8,
          0.8,
          1.0
        ],
        "metallicFactor": 0.0,
        "roughnessFactor": 0.8
      }
    },
    {
      "doubleSided": true,
      "name": "Cover",
      "pbrMetallicRoughness": {
        "baseColorFactor": [
          0.8,
          0.5,
          0.1,
          1.0
        ],
        "metallicFactor": 0.0,
        "roughnessFactor": 0.4
      }
    },
    {
      "doubleSided": true,
      "name": "Binding",
      "pbrMetallicRoughness": {
        "baseColorFactor": [
          0.8,
          0.8,
          0.8,
          1.0
        ],
        "metallicFactor": 0.6,
        "roughnessFactor": 0.2
      }
    }
  ],
  "meshes": [
    {
      "name": "Object_0",
      "primitives": [
        {
          "attributes": {
            "NORMAL": 1,
            "POSITION": 0,
            "TEXCOORD_0": 2
          },
          "indices": 3,
          "material": 0,
          "mode": 4
        }
      ]
    },
    {
      "name": "Object_1",
      "primitives": [
        {
          "attributes": {
            "NORMAL": 5,
            "POSITION": 4,
            "TEXCOORD_0": 6
          },
          "indices": 7,
          "material": 0,
          "mode": 4
        }
      ]
    },
    {
      "name": "Object_2",
      "primitives": [
        {
          "attributes": {
            "NORMAL": 9,
            "POSITION": 8,
            "TEXCOORD_0": 10
          },
          "indices": 11,
          "material": 1,
          "mode": 4
        }
      ]
    },
    {
      "name": "Object_3",
      "primitives": [
        {
          "attributes": {
            "NORMAL": 13,
            "POSITION": 12,
            "TEXCOORD_0": 14
          },
          "indices": 15,
          "material": 2,
          "mode": 4
        }
      ]
    }
  ],
  "nodes": [
    {
      "children": [
        1
      ],
      "matrix": [
        1.0,
        0.0,
        0.0,
        0.0,
        0.0,
        2.220446049250313e-16,
        -1.0,
        0.0,
        0.0,
        1.0,
        2.220446049250313e-16,
        0.0,
        0.0,
        0.0,
        0.0,
        1.0
      ],
      "name": "Sketchfab_model"
    },
    {
      "children": [
        2
      ],
      "name": "root"
    },
    {
      "children": [
        3
      ],
      "matrix": [
        1.0,
        0.0,
        0.0,
        0.0,
        0.0,
        2.220446049250313e-16,
        1.0,
        0.0,
        0.0,
        -1.0,
        2.220446049250313e-16,
        0.0,
        0.0,
        0.0,
        0.0,
        1.0
      ],
      "name": "GLTF_SceneRootNode"
    },
    {
      "children": [
        4,
        5,
        6,
        7
      ],
      "matrix": [
        0.03999999910593033,
        0.0,
        0.0,
        0.0,
        0.0,
        0.03999999910593033,
        0.0,
        0.0,
        0.0,
        0.0,
        0.03999999910593033,
        0.0,
        0.0,
        0.0,
        0.0,
        1.0
      ],
      "name": "Cube.002_0"
    },
    {
      "mesh": 0,
      "name": "Object_4"
    },
    {
      "mesh": 1,
      "name": "Object_5"
    },
    {
      "mesh": 2,
      "name": "Object_6"
    },
    {
      "mesh": 3,
      "name": "Object_7"
    }
  ],
  "scene": 0,
  "scenes": [
    {
      "name": "Sketchfab_Scene",
      "nodes": [
        0
      ]
    }
  ]
}
