{
  "accessors": [
    {
      "bufferView": 2,
      "componentType": 5126,
      "count": 1046,
      "max": [
        2.1048812866210938,
        1.2983537912368774,
        2.592725992202759
      ],
      "min": [
        -2.1048812866210938,
        -1.4013084173202515,
        -1.9144316911697388
      ],
      "type": "VEC3"
    },
    {
      "bufferView": 2,
      "byteOffset": 12552,
      "componentType": 5126,
      "count": 1046,
      "max": [
        0.9996002316474915,
        0.9997022151947021,
        0.7133831977844238
      ],
      "min": [
        -0.9996002316474915,
        -0.9989047050476074,
        -0.9948620200157166
      ],
      "type": "VEC3"
    },
    {
      "bufferView": 1,
      "componentType": 5126,
      "count": 1046,
      "max": [
        0.6290963292121887,
        0.875
      ],
      "min": [
        0.2499999850988388,
        0.3749999701976776
      ],
      "type": "VEC2"
    },
    {
      "bufferView": 0,
      "componentType": 5125,
      "count": 1572,
      "type": "SCALAR"
    },
    {
      "bufferView": 2,
      "byteOffset": 25104,
      "componentType": 5126,
      "count": 506,
      "max": [
        1.5331858396530151,
        1.0457727909088135,
        2.531562566757202
      ],
      "min": [
        -1.5331858396530151,
        -1.650811791419983,
        -3.732750415802002
      ],
      "type": "VEC3"
    },
    {
      "bufferView": 2,
      "byteOffset": 31176,
      "componentType": 5126,
      "count": 506,
      "max": [
        0.9903579354286194,
        1.0,
        0.9999465346336365
      ],
      "min": [
        -0.9903579950332642,
        -0.9995278716087341,
        -0.9999403953552246
      ],
      "type": "VEC3"
    },
    {
      "bufferView": 1,
      "byteOffset": 8368,
      "componentType": 5126,
      "count": 506,
      "max": [
        0.6250000596046448,
        0.875
      ],
      "min": [
        0.259839802980423,
        0.375
      ],
      "type": "VEC2"
    },
    {
      "bufferView": 0,
      "byteOffset": 6288,
      "componentType": 5125,
      "count": 786,
      "type": "SCALAR"
    },
    {
      "bufferView": 2,
      "byteOffset": 37248,
      "componentType": 5126,
      "count": 1032,
      "max": [
        1.289339542388916,
        1.0100806951522827,
        2.792505979537964
      ],
      "min": [
        -1.289339542388916,
        -1.3874105215072632,
        -0.19714999198913574
      ],
      "type": "VEC3"
    },
    {
      "bufferView": 2,
      "byteOffset": 49632,
      "componentType": 5126,
      "count": 1032,
      "max": [
        0.9897955656051636,
        0.999924898147583,
        0.9870593547821045
      ],
      "min": [
        -0.9897955656051636,
        -0.9892776608467102,
        -0.9998492002487183
      ],
      "type": "VEC3"
    },
    {
      "bufferView": 1,
      "byteOffset": 12416,
      "componentType": 5126,
      "count": 1032,
      "max": [
        0.6250001788139343,
        0.8750000596046448
      ],
      "min": [
        0.4662597179412842,
        0.3749999403953552
      ],
      "type": "VEC2"
    },
    {
      "bufferView": 0,
      "byteOffset": 9432,
      "componentType": 5125,
      "count": 1590,
      "type": "SCALAR"
    },
    {
      "bufferView": 2,
      "byteOffset": 62016,
      "componentType": 5126,
      "count": 1244,
      "max": [
        2.009976863861084,
        0.7045345902442932,
        2.8846828937530518
      ],
      "min": [
        -2.009976863861084,
        -1.2563973665237427,
        -2.0644636154174805
      ],
      "type": "VEC3"
    },
    {
      "bufferView": 2,
      "byteOffset": 76944,
      "componentType": 5126,
      "count": 1244,
      "max": [
        0.997331976890564,
        0.9929770231246948,
        0.9899271130561829
      ],
      "min": [
        -0.9973319172859192,
        -0.9983700513839722,
        -0.9775813817977905
      ],
      "type": "VEC3"
    },
    {
      "bufferView": 1,
      "byteOffset": 20672,
      "componentType": 5126,
      "count": 1244,
      "max": [
        0.6250001788139343,
        0.875
      ],
      "min": [
        0.5354329943656921,
        0.5078301429748535
      ],
      "type": "VEC2"
    },
    {
      "bufferView": 0,
      "byteOffset": 15792,
      "componentType": 5125,
      "count": 1950,
      "type": "SCALAR"
    },
    {
      "bufferView": 2,
      "byteOffset": 91872,
      "componentType": 5126,
      "count": 576,
      "max": [
        1.262308120727539,
        1.267322063446045,
        5.69230842590332
      ],
      "min": [
        -1.262308120727539,
        -1.2082931995391846,
        1.5085101127624512
      ],
      "type": "VEC3"
    },
    {
      "bufferView": 2,
      "byteOffset": 98784,
      "componentType": 5126,
      "count": 576,
      "max": [
        0.9434077739715576,
        0.989933431148529,
        0.9655845761299133
      ],
      "min": [
        -0.9434077739715576,
        -0.9398810863494873,
        -0.9703853130340576
      ],
      "type": "VEC3"
    },
    {
      "bufferView": 1,
      "byteOffset": 30624,
      "componentType": 5126,
      "count": 576,
      "max": [
        0.75,
        0.875
      ],
      "min": [
        0.6249998211860657,
        0.375
      ],
      "type": "VEC2"
    },
    {
      "bufferView": 0,
      "byteOffset": 23592,
      "componentType": 5125,
      "count": 876,
      "type": "SCALAR"
    },
    {
      "bufferView": 2,
      "byteOffset": 105696,
      "componentType": 5126,
      "count": 108,
      "max": [
        0.3450125455856323,
        -1.0772545337677002,
        -0.9934835433959961
      ],
      "min": [
        -0.3450125455856323,
        -1.1437604427337646,
        -1.447256326675415
      ],
      "type": "VEC3"
    },
    {
      "bufferView": 2,
      "byteOffset": 106992,
      "componentType": 5126,
      "count": 108,
      "max": [
        1.0,
        0.5770465135574341,
        1.0
      ],
      "min": [
        -1.0,
        -0.9995279312133789,
        -1.0
      ],
      "type": "VEC3"
    },
    {
      "bufferView": 1,
      "byteOffset": 35232,
      "componentType": 5126,
      "count": 108,
      "max": [
        0.37500008940696716,
        0.875
      ],
      "min": [
        0.375,
        0.8352272510528564
      ],
      "type": "VEC2"
    },
    {
      "bufferView": 0,
      "byteOffset": 27096,
      "componentType": 5125,
      "count": 180,
      "type": "SCALAR"
    },
    {
      "bufferView": 2,
      "byteOffset": 108288,
      "componentType": 5126,
      "count": 560,
      "max": [
        1.4950604438781738,
        0.7583476305007935,
        -1.5877443552017212
      ],
      "min": [
        -1.4950604438781738,
        -0.7113685011863708,
        -3.3873589038848877
      ],
      "type": "VEC3"
    },
    {
      "bufferView": 2,
      "byteOffset": 115008,
      "componentType": 5126,
      "count": 560,
      "max": [
        0.9830593466758728,
        0.9998475313186646,
        0.7637115716934204
      ],
      "min": [
        -0.9830593466758728,
        -0.9953228235244751,
        -0.8333943486213684
      ],
      "type": "VEC3"
    },
    {
      "bufferView": 1,
      "byteOffset": 36096,
      "componentType": 5126,
      "count": 560,
      "max": [
        0.3665928840637207,
        0.6849042177200317
      ],
      "min": [
        0.2584071159362793,
        0.5622732639312744
      ],
      "type": "VEC2"
    },
    {
      "bufferView": 0,
      "byteOffset": 27816,
      "componentType": 5125,
      "count": 840,
      "type": "SCALAR"
    },
    {
      "bufferView": 2,
      "byteOffset": 121728,
      "componentType": 5126,
      "count": 30,
      "max": [
        0.26767465472221375,
        -0.8539356589317322,
        1.8380292654037476
      ],
      "min": [
        -0.26767465472221375,
        -0.9905309081077576,
        1.5625797510147095
      ],
      "type": "VEC3"
    },
    {
      "bufferView": 2,
      "byteOffset": 122088,
      "componentType": 5126,
      "count": 30,
      "max": [
        0.5564501881599426,
        -0.11753178387880325,
        0.6253055930137634
      ],
      "min": [
        -0.5564503073692322,
        -0.7287806272506714,
        -0.8402515649795532
      ],
      "type": "VEC3"
    },
    {
      "bufferView": 1,
      "byteOffset": 40576,
      "componentType": 5126,
      "count": 30,
      "max": [
        0.6250001788139343,
        0.8750000596046448
      ],
      "min": [
        0.6249999403953552,
        0.8337046504020691
      ],
      "type": "VEC2"
    },
    {
      "bufferView": 0,
      "byteOffset": 31176,
      "componentType": 5125,
      "count": 54,
      "type": "SCALAR"
    },
    {
      "bufferView": 2,
      "byteOffset": 122448,
      "componentType": 5126,
      "count": 24,
      "max": [
        0.6217250823974609,
        -0.5954881906509399,
        2.512209892272949
      ],
      "min": [
        -0.763805627822876,
        -0.7820345759391785,
        2.2253146171569824
      ],
      "type": "VEC3"
    },
    {
      "bufferView": 2,
      "byteOffset": 122736,
      "componentType": 5126,
      "count": 24,
      "max": [
        0.47345414757728577,
        -0.874716579914093,
        -0.03292013704776764
      ],
      "min": [
        -0.4152653217315674,
        -0.9688446521759033,
        -0.10349927842617035
      ],
      "type": "VEC3"
    },
    {
      "bufferView": 1,
      "byteOffset": 40816,
      "componentType": 5126,
      "count": 24,
      "max": [
        0.6250000596046448,
        0.823885977268219
      ],
      "min": [
        0.6249999403953552,
        0.7410136461257935
      ],
      "type": "VEC2"
    },
    {
      "bufferView": 0,
      "byteOffset": 31392,
      "componentType": 5125,
      "count": 42,
      "type": "SCALAR"
    }
  ],
  "asset": {
    "extras": {
      "author": "SleepyPineapple (https://sketchfab.com/SleepyPineapple)",
      "license": "CC-BY-4.0 (http://creativecommons.org/licenses/by/4.0/)",
      "source": "https://sketchfab.com/3d-models/garden-gnome-a6cecca0308e43878a034c5f45b098a9",
      "title": "Garden Gnome"
    },
    "generator": "Sketchfab-12.66.0",
    "version": "2.0"
  },
  "bufferViews": [
    {
      "buffer": 0,
      "byteLength": 31560,
      "name": "floatBufferViews",
      "target": 34963
    },
    {
      "buffer": 0,
      "byteLength": 41008,
      "byteOffset": 31560,
      "byteStride": 8,
      "name": "floatBufferViews",
      "target": 34962
    },
    {
      "buffer": 0,
      "byteLength": 123024,
      "byteOffset": 72568,
      "byteStride": 12,
      "name": "floatBufferViews",
      "target": 34962
    }
  ],
  "buffers": [
    {
      "byteLength": 195592,
      "uri": "scene.bin"
    }
  ],
  "materials": [
    {
      "doubleSided": true,
      "name": "Material.001",
      "pbrMetallicRoughness": {
        "baseColorFactor": [
          0.02084099999999999,
          0.323557,
          0.07230319999999998,
          1.0
        ],
        "metallicFactor": 0.0,
        "roughnessFactor": 0.49971575190461426
      }
    },
    {
      "doubleSided": true,
      "name": "Material.006",
      "pbrMetallicRoughness": {
        "baseColorFactor": [
          0.0183412,
          0.0183412,
          0.0183412,
          1.0
        ],
        "metallicFactor": 0.0,
        "roughnessFactor": 0.49971575190461426
      }
    },
    {
      "doubleSided": true,
      "name": "Material.005",
      "pbrMetallicRoughness": {
        "baseColorFactor": [
          0.752942,
          0.715694,
          0.651406,
          1.0
        ],
        "metallicFactor": 0.0,
        "roughnessFactor": 0.29907003751466843
      }
    },
    {
      "doubleSided": true,
      "name": "Material.003",
      "pbrMetallicRoughness": {
        "baseColorFactor": [
          0.799103,
          0.37123799999999985,
          0.15896099999999994,
          1.0
        ],
        "metallicFactor": 0.0,
        "roughnessFactor": 0.29907003751466843
      }
    },
    {
      "doubleSided": true,
      "name": "Material.002",
      "pbrMetallicRoughness": {
        "baseColorFactor": [
          0.8490719999999998,
          0.054149399999999924,
          0.03192599999999996,
          1.0
        ],
        "metallicFactor": 0.0,
        "roughnessFactor": 0.49971575190461426
      }
    },
    {
      "doubleSided": true,
      "name": "Material.007",
      "pbrMetallicRoughness": {
        "baseColorFactor": [
          0.799103,
          0.445201,
          0.042311500000000044,
          1.0
        ],
        "metallicFactor": 0.0,
        "roughnessFactor": 0.2504286522080149
      }
    },
    {
      "doubleSided": true,
      "name": "Material.008",
      "pbrMetallicRoughness": {
        "baseColorFactor": [
          0.598395,
          0.10042299999999998,
          0.020871200000000013,
          1.0
        ],
        "metallicFactor": 0.0,
        "roughnessFactor": 0.49971575190461426
      }
    },
    {
      "doubleSided": true,
      "name": "Material.009",
      "pbrMetallicRoughness": {
        "baseColorFactor": [
          0.112155,
          0.00564554,
          0.00629369,
          1.0
        ],
        "metallicFactor": 0.0,
        "roughnessFactor": 0.9936638224
      }
    },
    {
      "doubleSided": true,
      "name": "Material.004",
      "pbrMetallicRoughness": {
        "baseColorFactor": [
          0.963881,
          0.963881,
          0.963881,
          1.0
        ],
        "metallicFactor": 0.0,
        "roughnessFactor": 0.7844696562
      }
    }
  ],
  "meshes": [
    {
      "name": "gnome.copy_Material.001_0",
      "primitives": [
        {
          "attributes": {
            "NORMAL": 1,
            "POSITION": 0,
            "TEXCOORD_0": 2
          },
          "indices": 3,
          "material": 0,
          "mode": 4
        }
      ]
    },
    {
      "name": "gnome.copy_Material.006_0",
      "primitives": [
        {
          "attributes": {
            "NORMAL": 5,
            "POSITION": 4,
            "TEXCOORD_0": 6
          },
          "indices": 7,
          "material": 1,
          "mode": 4
        }
      ]
    },
    {
      "name": "gnome.copy_Material.005_0",
      "primitives": [
        {
          "attributes": {
            "NORMAL": 9,
            "POSITION": 8,
            "TEXCOORD_0": 10
          },
          "indices": 11,
          "material": 2,
          "mode": 4
        }
      ]
    },
    {
      "name": "gnome.copy_Material.003_0",
      "primitives": [
        {
          "attributes": {
            "NORMAL": 13,
            "POSITION": 12,
            "TEXCOORD_0": 14
          },
          "indices": 15,
          "material": 3,
          "mode": 4
        }
      ]
    },
    {
      "name": "gnome.copy_Material.002_0",
      "primitives": [
        {
          "attributes": {
            "NORMAL": 17,
            "POSITION": 16,
            "TEXCOORD_0": 18
          },
          "indices": 19,
          "material": 4,
          "mode": 4
        }
      ]
    },
    {
      "name": "gnome.copy_Material.007_0",
      "primitives": [
        {
          "attributes": {
            "NORMAL": 21,
            "POSITION": 20,
            "TEXCOORD_0": 22
          },
          "indices": 23,
          "material": 5,
          "mode": 4
        }
      ]
    },
    {
      "name": "gnome.copy_Material.008_0",
      "primitives": [
        {
          "attributes": {
            "NORMAL": 25,
            "POSITION": 24,
            "TEXCOORD_0": 26
          },
          "indices": 27,
          "material": 6,
          "mode": 4
        }
      ]
    },
    {
      "name": "gnome.copy_Material.009_0",
      "primitives": [
        {
          "attributes": {
            "NORMAL": 29,
            "POSITION": 28,
            "TEXCOORD_0": 30
          },
          "indices": 31,
          "material": 7,
          "mode": 4
        }
      ]
    },
    {
      "name": "gnome.copy_Material.004_0",
      "primitives": [
        {
          "attributes": {
            "NORMAL": 33,
            "POSITION": 32,
            "TEXCOORD_0": 34
          },
          "indices": 35,
          "material": 8,
          "mode": 4
        }
      ]
    }
  ],
  "nodes": [
    {
      "children": [
        1
      ],
      "matrix": [
        1.0,
        0.0,
        0.0,
        0.0,
        0.0,
        2.220446049250313e-16,
        -1.0,
        0.0,
        0.0,
        1.0,
        2.220446049250313e-16,
        0.0,
        0.0,
        0.0,
        0.0,
        1.0
      ],
      "name": "Sketchfab_model"
    },
    {
      "children": [
        2
      ],
      "matrix": [
        1.0,
        0.0,
        0.0,
        0.0,
        0.0,
        0.0,
        1.0,
        0.0,
        0.0,
        -1.0,
        0.0,
        0.0,
        0.0,
        0.0,
        0.0,
        1.0
      ],
      "name": "23a62546e20b4864a281a2b078f6ea54.fbx"
    },
    {
      "children": [
        3
      ],
      "name": "RootNode"
    },
    {
      "children": [
        4,
        5,
        6,
        7,
        8,
        9,
        10,
        11,
        12
      ],
      "matrix": [
        13.525197982788086,
        0.0,
        0.0,
        0.0,
        0.0,
        -2.2035344442648627e-06,
        -13.525197982787907,
        0.0,
        0.0,
        13.525197982787907,
        -2.2035344442648627e-06,
        0.0,
        0.0,
        50.44993209838867,
        2.013920545578003,
        1.0
      ],
      "name": "gnome.copy"
    },
    {
      "mesh": 0,
      "name": "gnome.copy_Material.001_0"
    },
    {
      "mesh": 1,
      "name": "gnome.copy_Material.006_0"
    },
    {
      "mesh": 2,
      "name": "gnome.copy_Material.005_0"
    },
    {
      "mesh": 3,
      "name": "gnome.copy_Material.003_0"
    },
    {
      "mesh": 4,
      "name": "gnome.copy_Material.002_0"
    },
    {
      "mesh": 5,
      "name": "gnome.copy_Material.007_0"
    },
    {
      "mesh": 6,
      "name": "gnome.copy_Material.008_0"
    },
    {
      "mesh": 7,
      "name": "gnome.copy_Material.009_0"
    },
    {
      "mesh": 8,
      "name": "gnome.copy_Material.004_0"
    }
  ],
  "scene": 0,
  "scenes": [
    {
      "name": "Sketchfab_Scene",
      "nodes": [
        0
      ]
    }
  ]
}
